<?xml version="1.0" encoding="iso-8859-1"?>
<!-- Generator: Adobe Illustrator 19.0.0, SVG Export Plug-In . SVG Version: 6.00 Build 0)  -->
<svg version="1.1" id="Capa_1" xmlns="http://www.w3.org/2000/svg" xmlns:xlink="http://www.w3.org/1999/xlink" x="0px" y="0px"
	 viewBox="0 0 512.032 512.032" style="enable-background:new 0 0 512.032 512.032;" xml:space="preserve">
<g>
	<path style="fill:#F8B64C;" d="M163.557,243.819c4.245,18.144,2.005,34.187-4.981,35.808c-6.997,1.643-16.085-11.755-20.331-29.899
		c-4.224-18.144-2.005-34.187,5.003-35.808C150.224,212.277,159.333,225.696,163.557,243.819"/>
	<path style="fill:#F8B64C;" d="M350.075,243.819c-4.224,18.144-1.984,34.187,5.003,35.808c6.976,1.643,14.859-12.085,20.309-29.899
		c3.275-10.624,1.771-32.352-4.981-35.808C364.016,210.656,354.331,225.696,350.075,243.819"/>
</g>
<g>
	<path style="fill:#FF7058;" d="M165.851,312.907c0,7.915-6.421,14.357-14.336,14.357s-14.336-6.443-14.336-14.357
		c0-7.893,14.336-39.435,14.336-39.435S165.851,305.013,165.851,312.907"/>
	<path style="fill:#FF7058;" d="M375.952,312.907c0,7.915-6.421,14.357-14.336,14.357s-14.336-6.443-14.336-14.357
		c0-7.893,14.336-39.435,14.336-39.435S375.952,305.013,375.952,312.907"/>
	<path style="fill:#FF7058;" d="M484.667,512.032H27.365l1.088-12.683c8.107-47.584,39.563-86.08,81.483-104.651
		c13.227-5.984,27.52-9.92,42.453-11.413h0.107c4.811-0.629,9.707-0.853,14.624-0.853h177.813c5.003,0,9.92,0.224,14.709,0.853
		c15.253,1.504,29.771,5.557,43.211,11.755c41.483,18.667,72.651,57.067,80.747,104.309L484.667,512.032z"/>
</g>
<path style="fill:#F8B64C;" d="M380.763,387.157c-0.651,6.624-2.251,13.024-5.12,18.88c-23.04,45.771-68.896,73.941-119.669,73.941
	c-50.891-0.128-96.544-28.267-119.477-73.6c-2.976-6.187-4.683-12.587-5.227-19.211c6.837-1.813,13.877-3.189,21.024-3.829v-0.107
	c4.896-0.544,9.813-0.853,14.837-0.853h17.483v-31.147c32.213,41.6,72,45.643,72,45.643s39.371-3.936,71.584-45.024v30.517h16.747
	c5.003,0,9.92,0.309,14.709,0.853v0.107C366.896,383.968,373.829,385.344,380.763,387.157"/>
<g>
	<rect x="251.013" y="376.555" style="fill:#FFD15C;" width="0.043" height="0.043"/>
	<rect x="256.229" y="250.048" style="fill:#FFD15C;" width="0.021" height="0.043"/>
	<path style="fill:#FFD15C;" d="M356.389,296.576c-29.397,93.248-99.808,100.331-99.808,100.331s-70.421-7.083-99.808-100.331
		c0,0-15.712-48.629-2.517-89.163c0,0,8.064-69.163,102.336-69.163s102.357,69.163,102.357,69.163
		C372.123,247.947,356.389,296.576,356.389,296.576"/>
</g>
<g style="opacity:0.1;">
	<g>
		<path style="fill:#40596B;" d="M359.643,383.328v-0.107c-4.747-0.544-9.621-0.853-14.581-0.853c-0.043,0-0.128,0.021-0.171,0.021
			h-16.747v-30.475c-32.149,41.024-71.563,45.003-71.563,45.003s-14.315-1.504-32.704-11.627h-0.021l83.829,84.309
			c28.896-12.085,53.163-34.144,67.957-63.541c2.88-5.877,4.48-12.267,5.12-18.891C373.829,385.344,366.896,383.968,359.643,383.328
			"/>
	</g>
</g>
<path style="fill:#FF7058;" d="M344.304,210.411c0,0-34.645-4.288-65.899,8.981c0,0-14.997,6.859-21.835,6.859
	c-6.859,0-21.813-6.859-21.813-6.859c-31.275-13.269-65.92-8.981-65.92-8.981c-23.541,1.728-13.269,29.963-13.269,29.963
	c11.957,45.792,53.088,38.933,53.088,38.933c34.208-2.56,40.651-29.525,40.651-29.525c1.269-9.419,7.275-9.419,7.275-9.419
	s6.005,0,7.275,9.419c0,0,6.443,26.955,40.672,29.525c0,0,41.088,6.859,53.067-38.933
	C357.573,240.363,367.845,212.139,344.304,210.411 M240.261,246.805c-0.107,0.437-0.192,0.917-0.245,1.355
	c-0.064,0-5.067,17.664-29.088,19.435c-0.981,0.149-2.379,0.309-4.523,0.309c-10.144,0-28.128-3.808-34.795-29.333
	c-1.557-4.501-2.645-11.456-0.704-14.453c0.288-0.416,1.163-1.749,5.109-2.037c0.651-0.064,5.045-0.565,11.808-0.565
	c11.413,0,28.373,1.376,44.128,8.064c0.107,0.064,0.245,0.149,0.395,0.192C238.811,232.715,241.915,239.861,240.261,246.805
	 M341.541,238.571c-6.667,25.525-24.672,29.333-34.773,29.333c-2.144,0-3.563-0.171-4.523-0.309
	c-24.043-1.771-29.045-19.435-29.109-19.435c-0.064-0.437-0.171-0.917-0.267-1.355c-1.6-6.933,1.483-14.08,7.936-17.045
	c0.171-0.043,0.288-0.128,0.395-0.192c15.776-6.688,32.683-8.064,44.128-8.064c6.795,0,11.168,0.501,11.808,0.565
	c3.957,0.288,4.811,1.621,5.109,2.037C344.187,227.115,343.099,234.069,341.541,238.571"/>
<path style="fill:#40596B;" d="M349.659,82.656c7.061-10.603,10.443-23.872,8.224-38.005C354.469,22.965,337.2,5.067,315.632,0.981
	c-13.163-2.475-25.643-0.085-36.021,5.664C272.88,2.517,265.051,0,256.571,0c-8.48,0-16.309,2.517-23.04,6.645
	c-10.357-5.728-22.816-8.128-35.957-5.664c-21.525,4.043-38.773,21.835-42.272,43.456c-2.272,14.059,1.024,27.275,7.957,37.856
	l-0.651,0.245c-71.872,64.085-13.643,170.752-13.643,170.752c2.123-33.419,18.795-56.875,30.752-69.6
	c9.312-9.92,22.4-16.085,35.979-15.019c25.963,2.016,36.939,26.229,36.939,26.229c25.419,46.229,61.088,41.643,61.088,41.643
	c-19.563-6.165-15.189-36.064-15.189-36.064c7.872,42.272,65.163,52.811,65.163,52.811
	C425.243,154.72,363.184,92.779,349.659,82.656"/>
<g>
</g>
<g>
</g>
<g>
</g>
<g>
</g>
<g>
</g>
<g>
</g>
<g>
</g>
<g>
</g>
<g>
</g>
<g>
</g>
<g>
</g>
<g>
</g>
<g>
</g>
<g>
</g>
<g>
</g>
</svg>
